<?xml version="1.0" encoding="UTF-8"?>
<!DOCTYPE svg PUBLIC "-//W3C//DTD SVG 1.1//EN" "http://www.w3.org/Graphics/SVG/1.1/DTD/svg11.dtd">
<!-- Creator: CorelDRAW -->
<svg xmlns="http://www.w3.org/2000/svg" xml:space="preserve" width="200px" height="283px" style="shape-rendering:geometricPrecision; text-rendering:geometricPrecision; image-rendering:optimizeQuality; fill-rule:evenodd; clip-rule:evenodd"
viewBox="0 0 200 282.857"
 xmlns:xlink="http://www.w3.org/1999/xlink">
 <defs>
  <style type="text/css">
   <![CDATA[
    .str2 {stroke:#2B2A29;stroke-width:0.0725714}
    .str1 {stroke:#2B2A29;stroke-width:0.0952381}
    .str0 {stroke:#2B2A29;stroke-width:0.190476}
    .fil3 {fill:none}
    .fil0 {fill:red}
    .fil1 {fill:white}
    .fil2 {fill:white;fill-rule:nonzero}
   ]]>
  </style>
 </defs>
 <g id="Layer_x0020_1">
  <metadata id="CorelCorpID_0Corel-Layer"/>
  <g id="_147788344">
   <g>
    <path id="_149612448" class="fil0" d="M112.369 138.921l-0.405524 2.10876c0.278,-0.0230476 0.812571,-0.166762 1.07048,-0.227143l9.93981 -2.22638c0.296762,-0.0632381 0.788476,-0.14819 1.12848,-0.250381 0.327619,-0.0984762 0.294286,-0.0688571 0.71019,-0.668571 0.873048,-1.25876 1.36571,-2.05876 2.07486,-3.35943 -0.281619,0.0234286 -3.35905,1.02343 -3.66076,1.12467 -1.124,0.376952 -10.331,3.2199 -10.8575,3.49848z"/>
    <path id="_149617504" class="fil0" d="M88.0366 141.029l-0.405524 -2.10876c-0.572571,-0.302952 -11.0594,-3.53543 -12.6419,-4.06629l-1.87638 -0.556857c0.071619,0.26819 2.16143,3.7721 2.66238,3.98848 0.219333,0.0947619 7.33819,1.63981 7.81743,1.75324l4.444 0.99019z"/>
    <path id="Head" class="fil1" d="M99.0672 147.102l0.0933333 -0.15819 -0.0933333 0.15819zm1.86552 -0.324381l0.0241905 0.0240952c-0.00161905,-0.00152381 -0.0322857,-0.0160952 -0.0241905,-0.0240952zm-2.59552 -0.73l-0.0810476 0.16219 0.0810476 -0.16219zm3.56876 0.0810476l0 0zm-3.56876 -0.0810476l0 0zm3.40657 -0.16219l0.0241905 0.0241905c-0.00161905,-0.00161905 -0.0322857,-0.0161905 -0.0241905,-0.0241905zm-3.64981 -1.05448l0 0zm0.243238 -0.16219l0 0zm0.162286 -0.0810476l-0.162286 0.0810476 0.162286 -0.0810476zm0 0c0.134857,-0.18419 0.384476,-0.282952 0.617524,-0.436952 0.136667,-0.0902857 0.203905,-0.138476 0.328571,-0.239048 0.210667,-0.17 0.0620952,-0.138952 0.351619,-0.216286 -0.123905,0.23419 -0.0330476,0.114762 -0.20819,0.278476 -0.132762,0.124095 -0.180381,0.142857 -0.332381,0.235429 -0.267524,0.163048 -0.444667,0.305524 -0.757143,0.378381zm1.29771 -0.892286l0 0zm0.16219 -0.243238l0 0zm0.0811429 -0.0811429l-0.0811429 0.0811429 0.0811429 -0.0811429zm0.0810476 -0.0811429l-0.0810476 0.0811429 0.0810476 -0.0811429zm2.02771 -0.0810476l0.0241905 0.0241905c-0.00152381,-0.00161905 -0.0321905,-0.0161905 -0.0241905,-0.0241905zm-1.94657 0l-0.0811429 0.0810476 0.0811429 -0.0810476zm-1.4599 0.0810476c0.108762,-0.0821905 -0.170667,-0.0810476 0.243238,-0.0810476 -0.0991429,0.0749524 0.0912381,0.0525714 -0.243238,0.0810476zm1.54105 -0.16219l-0.0811429 0.0811429 0.0811429 -0.0811429zm-1.21667 0l0.0241905 0.0241905c-0.00161905,-0.00161905 -0.0321905,-0.0160952 -0.0241905,-0.0241905zm1.21667 0l0 0zm-0.973333 -0.0811429l0 0zm2.10886 -0.0810476c0.00428571,-0.0352381 0.367905,-0.145333 0.10819,0.00552381 -0.141619,0.0822857 -0.123524,0.117333 -0.10819,-0.00552381zm-0.89219 0l0 0zm-1.13552 0l-0.0811429 0.0810476 0.0811429 -0.0810476zm1.21657 -0.0811429l-0.0810476 0.0811429 0.0810476 -0.0811429zm-1.05438 0l-0.16219 0.0811429 0.16219 -0.0811429zm2.43324 -0.0810476l0.0241905 0.0240952c-0.00161905,-0.00152381 -0.0322857,-0.0160952 -0.0241905,-0.0240952zm-1.37886 0.0810476l0 0zm-0.973238 -0.0810476l-0.0811429 0.0810476 0.0811429 -0.0810476zm1.21657 -0.0811429l0 0zm-1.21657 0.0811429l0 0zm1.21657 -0.0811429l0 0zm-0.973238 -0.16219l0.0241905 0.0241905c-0.00161905,-0.00161905 -0.0322857,-0.0161905 -0.0241905,-0.0241905zm2.43314 -0.405619c0.364667,0.04 0.203429,-0.121238 0.226,0.260762l-0.226 -0.260762zm-1.05438 0.000380952l0.0811429 0c0.166857,-0.106286 0.515619,-0.111524 0.724476,-0.0792381 0.0255238,0.004 0.0464762,0.00809524 0.0697143,0.0131429l0.179048 0.0657143c-0.680857,0.18181 0.304762,0.179143 -1.21657,0.486667 -0.0413333,-0.0933333 0.368857,-0.436286 -0.373143,-0.390952l0.535333 -0.0953333zm-2.51429 1.13514c-0.258571,0.224762 -0.470857,0.424476 -0.646667,0.73219 -0.136476,0.239048 -0.381429,0.654381 -0.40781,0.971143 0.300762,-0.080381 0.104857,-0.082 0.405619,-0.162286 -0.0825714,0.156 -0.134952,0.261333 -0.230762,0.41819 -0.128667,0.210571 -0.149429,0.169048 -0.174857,0.474l0.0811429 0.0811429c0.206762,0.138476 0.253238,0.138952 0.324476,0.405524l0.16219 0 0 0.16219 0.0810476 0.0811429 0.73 0.648857c0.118952,0.445429 0.720857,0.758571 0.988476,1.15133l0.471524 -0.421333c0.138286,-0.51819 0.472286,-0.249333 0.486571,-0.89219 0.18619,0.196762 0.0908571,0.156381 0.324476,0 0.074381,-0.278762 0.0665714,-0.187429 0.262571,-0.386381 0.221143,-0.224476 0.160667,-0.151619 0.305143,-0.424762 0.156762,-0.0289524 0.135238,-0.0194286 0.243333,-0.0810476l0.0811429 -0.0811429 0.0810476 -0.0810476 0.0811429 -0.0811429c-0.010381,-0.464095 -0.323238,-0.863238 -0.488286,-1.2161l0.244952 -1.136c0.155619,-0.0550476 0.070381,0.346571 0.486667,-0.405619l0.405524 1.05448c0.384476,-0.257429 1.10029,-0.958952 0.861714,-1.75152 -0.0781905,-0.259524 -0.428857,-0.538571 -0.62981,-0.673238l-0.799619 0.234857c-0.0508571,-0.611429 -0.961048,-0.436286 -1.77124,-0.311238l-1.77324 0.449143 0.30019 0.186476c-0.425238,0.113524 -0.810762,0.78419 -1.05448,1.13552 0.238667,-0.055619 0.247619,-0.0811429 0.56781,-0.0811429z"/>
    <path id="_149617648" class="fil0" d="M88.6854 142.976l-0.648857 -1.78438c-0.91219,-0.212571 -1.95867,-0.364952 -2.85876,-0.547714l-8.73962 -1.64219c0.336952,0.636762 2.17971,2.8159 3.11219,2.97086l7.29429 0.816476c0.588286,0.0788571 1.25448,0.186952 1.84076,0.186952z"/>
    <path id="_153350848" class="fil0" d="M111.963 141.192c-0.139238,0.597429 -0.410667,1.20933 -0.648857,1.78438 0.586286,0 1.25248,-0.108095 1.84076,-0.186952 1.91838,-0.257048 4.43143,-0.52981 6.34362,-0.712762 0.245619,-0.0234286 0.657714,-0.0550476 0.950667,-0.103714 0.36619,-0.0608571 0.441714,-0.111524 0.660381,-0.312952 1.15124,-1.06057 1.39781,-1.44333 2.45181,-2.6579l-11.5984 2.1899z"/>
    <path id="_149626608" class="fil0" d="M112.531 137.217l0 1.37886c0.37019,-0.0308571 1.09905,-0.325524 1.49057,-0.456095 0.958286,-0.319524 7.1579,-2.33314 7.4959,-2.64257 0.905238,-0.828857 1.08086,-1.35124 1.63867,-2.41667 -0.35981,0.0838095 -0.949238,0.346857 -1.29771,0.486571 -1.1799,0.473048 -8.8479,3.32876 -9.32743,3.6499z"/>
    <path id="_149626728" class="fil0" d="M87.4689 138.596l0 -1.37886c-0.351905,-0.235619 -2.076,-0.846667 -2.59629,-1.05362 -0.877524,-0.348952 -1.82029,-0.722571 -2.68781,-1.04305l-5.34105 -2.03981c0.184857,0.793429 1.06714,1.85952 1.5981,2.37619 0.257524,0.250476 0.258762,0.209238 0.641238,0.332l6.83438 2.33076c0.354095,0.118 1.17819,0.445238 1.55143,0.476381z"/>
    <path id="_153442256" class="fil0" d="M110.503 144.517c1.94238,0 3.99562,-0.0652381 5.92362,-0.00257143 0.834286,0.0270476 0.557524,0.393714 2.08324,-0.75019 0.897238,-0.672762 0.715524,-0.519524 1.64495,-1.3561 -1.79543,0 -5.99733,0.547333 -8.10867,0.650952 -0.114476,0.00561905 -0.563333,0.0565714 -0.648286,0.0817143 -0.361238,0.106571 -0.168857,0.0240952 -0.331429,0.398571 -0.151333,0.348571 -0.469905,0.627524 -0.563429,0.977619z"/>
    <path id="_153442376" class="fil0" d="M89.4966 144.517c-0.0957143,-0.358476 -0.375429,-0.567619 -0.539143,-0.920857 -0.15981,-0.344857 -0.0241905,-0.32619 -0.292476,-0.437524 -0.269238,-0.111619 -7.60857,-0.683048 -8.82019,-0.750476 0.328476,0.490667 1.85181,1.49162 2.46457,1.91533 0.610381,0.422 0.441238,0.236762 1.18457,0.193333 1.8621,-0.108667 4.09886,0.000190476 6.00267,0.000190476z"/>
    <path id="_153350280" class="fil0" d="M108.8 146.383c2.67171,0 3.23057,1.04714 4.72571,-0.546286l0.95181 -1.07581c-0.761238,0 -1.23143,-0.0829524 -2.02962,-0.0792381l-2.10686 -0.0830476c-0.179238,0.338857 -0.396857,0.682571 -0.667429,0.954667l-0.873619 0.829714z"/>
    <path id="_153350400" class="fil0" d="M85.5223 144.76c0.301429,0.450095 0.525333,0.65419 0.910857,1.03562 0.178857,0.177048 0.920667,0.810667 1.15124,0.878667l3.61543 -0.29219c-0.128857,-0.192381 -0.539333,-0.444095 -0.832571,-0.789524l-0.708476 -0.994857c-1.47276,0 -2.7719,0.162286 -4.13648,0.162286z"/>
    <path id="_153350560" class="fil0" d="M93.4709 147.924c0.156762,-0.279048 -0.447048,-0.312286 -0.974571,-0.647619l-1.05314 -0.812286 -3.16324 0.648857c0.281333,0.384 1.75095,1.08981 2.32629,1.32467 0.893048,0.364476 1.72848,-0.419048 2.86467,-0.513619z"/>
    <path id="_153350680" class="fil0" d="M106.529 147.924c0.405429,0.0337143 0.989048,0.252 1.4079,0.376476 1.50924,0.448381 1.1581,0.307238 3.78305,-1.18752l-3.16324 -0.648857c-0.449524,0.671238 -1.65352,1.05229 -1.92952,1.24 -0.2,0.136 -0.192381,0.000190476 -0.0981905,0.219905z"/>
    <path id="_150984496" class="fil0" d="M93.4709 147.924c-0.291429,0.253333 -1.522,0.615905 -1.86552,0.73l0 0.16219c0.333333,0.077619 1.19695,0.548286 2.28514,0.720857 0.762762,0.120857 0.783048,-0.113048 1.85133,-0.96419 -0.376857,-0.0878095 -0.820571,-0.193143 -1.14724,-0.312667 -0.395333,-0.144571 -0.589429,-0.33619 -1.12371,-0.33619z"/>
    <path id="_150984656" class="fil0" d="M106.529 147.924c-0.282571,0 -1.69114,0.490857 -2.27095,0.648857 0.16419,0.245333 0.558476,0.470667 0.810381,0.649524 0.618,0.438667 0.631619,0.53581 2.20152,0.0102857l1.12457 -0.578667c-0.281143,-0.0234286 -1.09324,-0.372381 -1.43857,-0.508095 -0.214857,-0.0844762 -0.286667,-0.1 -0.426952,-0.221905z"/>
    <path id="_150985056" class="fil0" d="M102.717 148.816l-0.0811429 0.567714c0.654476,0.438286 1.4719,0.404952 2.1899,0.324476l-0.648857 -1.05438c-0.571048,0 -0.888952,0.16219 -1.4599,0.16219z"/>
    <path id="_150994824" class="fil0" d="M95.1741 149.708c1.11057,0 0.261143,0.289048 2.1899,-0.324476l-0.0811429 -0.567714 -1.4599 -0.16219c-0.0741905,0.277619 -0.482571,0.806 -0.648857,1.05438z"/>
    <path id="Eye" class="fil0" d="M101.338 142.155l-0.0811429 0c0.0640952,0.239524 0.0333333,0.131524 0.162286,0.324095 0.406,-0.00904762 0.399048,-0.0726667 0.567714,-0.324476l-0.648857 0.000380952z"/>
   </g>
   <path id="_147787168" class="fil2" d="M94.7705 139.61l0 -2.8121c0,-0.67981 -0.484476,-1.01971 -1.45333,-1.01971l-4.98143 0 0 0.139048c0,0.587143 0.530095,0.880667 1.59029,0.880667l3.25429 0 0 2.82752 -3.22267 0 0 -1.90048 -1.6219 0 0 2.88933 4.98143 0c0.968857,0 1.45333,-0.334762 1.45333,-1.00429z"/>
   <path id="_1477871681" class="fil2" d="M101.848 137.694l-4.8339 0 0 -0.89619 4.8339 0c0,-0.67981 -0.484476,-1.01971 -1.45333,-1.01971l-3.55962 0c-0.617905,0 -1.05324,0.200857 -1.3059,0.602571 -0.0772381,0.123619 -0.115905,0.257524 -0.115905,0.401714l0 2.82752c0,0.35019 0.189619,0.618 0.568762,0.803429 0.27381,0.133905 0.561619,0.200857 0.863524,0.200857l3.54914 0c0.968857,0 1.45333,-0.329619 1.45333,-0.988857l-4.8339 0 0 -0.911619 3.0541 0c1.18657,0 1.77981,-0.339905 1.77981,-1.01971z"/>
   <path id="_14778716812" class="fil2" d="M104.091 140.615l0 -3.81638c0,-0.67981 -0.484476,-1.01971 -1.45333,-1.01971l-0.147524 0 0 3.83181c0,0.35019 0.189619,0.618 0.568762,0.803429 0.266762,0.133905 0.551143,0.200857 0.853048,0.200857l0.179048 0z"/>
   <path id="_147787168123" class="fil2" d="M111.758 140.615l0 -4.8361 -0.294857 0c-0.737238,0 -1.26381,0.17 -1.57971,0.509905l-1.63248 1.7459 -1.64286 -1.7459c-0.322952,-0.339905 -0.846095,-0.509905 -1.56924,-0.509905l-0.305429 0 0 4.8361 0.147524 0c0.968857,0 1.45333,-0.334762 1.45333,-1.00429l0 -1.96229 1.91667 2.16314 1.90629 -2.16314 0 1.96229c0,0.381143 0.189524,0.659238 0.568667,0.834381 0.252762,0.113238 0.547619,0.169905 0.884667,0.169905l0.147429 0z"/>
   <path id="_147785848" class="fil1 str0" d="M94.7705 139.61l0 -2.8121c0,-0.67981 -0.484476,-1.01971 -1.45333,-1.01971l-4.98143 0 0 0.139048c0,0.587143 0.530095,0.880667 1.59029,0.880667l3.25429 0 0 2.82752 -3.22267 0 0 -1.90048 -1.6219 0 0 2.88933 4.98143 0c0.968857,0 1.45333,-0.334762 1.45333,-1.00429z"/>
   <path id="_147791896" class="fil1 str0" d="M95.4129 136.783l0 2.82752c0,0.35019 0.189619,0.618 0.568762,0.803429 0.27381,0.133905 0.561619,0.200857 0.863524,0.200857l3.54914 0c0.968857,0 1.45333,-0.329619 1.45333,-0.988857l-4.8339 0 0 -0.911619 3.0541 0c1.18657,0 1.77981,-0.339905 1.77981,-1.01971l-4.8339 0 0 -0.89619 4.8339 0c0,-0.67981 -0.484476,-1.01971 -1.45333,-1.01971l-3.55962 0c-0.617905,0 -1.05314,0.200857 -1.3059,0.602571 -0.0772381,0.123619 -0.115905,0.257524 -0.115905,0.401714z"/>
   <path id="_147785776" class="fil1 str0" d="M102.49 135.778l0 3.83181c0,0.35019 0.189619,0.618 0.568762,0.803429 0.266762,0.133905 0.551143,0.200857 0.853048,0.200857l0.179048 0 0 -3.81638c0,-0.67981 -0.484476,-1.01971 -1.45333,-1.01971l-0.147524 0z"/>
   <path id="_150984776" class="fil1 str0" d="M104.733 135.778l0 4.8361 0.147524 0c0.968857,0 1.45333,-0.334762 1.45333,-1.00429l0 -1.96229 1.91667 2.16314 1.90629 -2.16314 0 1.96229c0,0.381143 0.189524,0.659238 0.568667,0.834381 0.252762,0.113238 0.547619,0.169905 0.884667,0.169905l0.147333 0 0 -4.8361 -0.294762 0c-0.737238,0 -1.26381,0.17 -1.57971,0.509905l-1.63248 1.7459 -1.64286 -1.7459c-0.322952,-0.339905 -0.846095,-0.509905 -1.56924,-0.509905l-0.305429 0z"/>
   <path id="_150056704" class="fil3 str1" d="M102.312 142.154c-0.680857,0.18181 0.304762,0.179143 -1.21657,0.486667 -0.0413333,-0.0933333 0.368857,-0.436286 -0.373143,-0.390952l0.535333 -0.0953333 0.0811429 0c0.166857,-0.106286 0.515619,-0.111524 0.724476,-0.0792381l0.0697143 0.0131429 0.179048 0.0657143zm0.226 0.260762l-0.226 -0.260762c0.364667,0.04 0.203429,-0.121238 0.226,0.260762zm-3.79467 0.874762c0.108762,-0.0821905 -0.170667,-0.0810476 0.243238,-0.0810476 -0.0991429,0.0749524 0.0912381,0.0525714 -0.243238,0.0810476zm4.53057 -1.61362l-0.799619 0.234857c-0.0508571,-0.611429 -0.961048,-0.436286 -1.77124,-0.311238l-1.77324 0.449143 0.30019 0.186476c-0.425238,0.113524 -0.810762,0.78419 -1.05448,1.13552 0.238667,-0.055619 0.247619,-0.0811429 0.56781,-0.0811429 -0.258571,0.224762 -0.470857,0.424476 -0.646667,0.73219 -0.136476,0.239048 -0.381429,0.654381 -0.40781,0.971143 0.300762,-0.080381 0.104857,-0.082 0.405619,-0.162286 -0.0825714,0.156 -0.134952,0.261333 -0.230762,0.41819 -0.128667,0.210571 -0.149429,0.169048 -0.174857,0.474l0.0811429 0.0811429c0.206762,0.138476 0.253238,0.138952 0.324476,0.405524l0.16219 0 0 0.16219 0.0810476 0.0811429 0.73 0.648857c0.118952,0.445429 0.720857,0.758571 0.988476,1.15133l0.471524 -0.421333c0.138286,-0.51819 0.472286,-0.249333 0.486571,-0.89219 0.18619,0.196762 0.0908571,0.156381 0.324476,0 0.074381,-0.278762 0.0665714,-0.187429 0.262571,-0.386381 0.221143,-0.224476 0.160667,-0.151619 0.305143,-0.424762 0.156762,-0.0289524 0.135238,-0.0194286 0.243333,-0.0810476l0.0811429 -0.0811429 0.0810476 -0.0810476 0.0811429 -0.0811429c-0.010381,-0.464095 -0.323238,-0.863238 -0.488286,-1.2161l0.244952 -1.136c0.155619,-0.0550476 0.070381,0.346571 0.486667,-0.405619l0.405524 1.05448c0.384476,-0.257429 1.10029,-0.958952 0.861714,-1.75152 -0.0781905,-0.259524 -0.428857,-0.538571 -0.62981,-0.673238zm-2.34067 5.10133l0.0241905 0.0240952c-0.00161905,-0.00152381 -0.0322857,-0.0160952 -0.0241905,-0.0240952zm0.811048 -0.89219l0.0241905 0.0241905c-0.00161905,-0.00161905 -0.0322857,-0.0161905 -0.0241905,-0.0241905zm-2.48714 -1.6761c-0.267524,0.163048 -0.444667,0.305524 -0.757143,0.378381 0.134857,-0.18419 0.384476,-0.282952 0.617524,-0.436952 0.136667,-0.0902857 0.203905,-0.138476 0.328571,-0.239048 0.210667,-0.17 0.0620952,-0.138952 0.351619,-0.216286 -0.123905,0.23419 -0.0330476,0.114762 -0.20819,0.278476 -0.132762,0.124095 -0.180381,0.142857 -0.332381,0.235429zm2.27095 -1.23829c-0.141619,0.0822857 -0.123524,0.117333 -0.10819,-0.00552381 0.00428571,-0.0352381 0.367905,-0.145333 0.10819,0.00552381zm0.483714 -0.143619c-0.00161905,-0.00152381 -0.0322857,-0.0160952 -0.0241905,-0.0240952l0.0241905 0.0240952zm-2.10876 -0.243238c-0.00161905,-0.00161905 -0.0322857,-0.0161905 -0.0241905,-0.0241905l0.0241905 0.0241905zm2.27095 0.648857c-0.00152381,-0.00161905 -0.0321905,-0.0161905 -0.0241905,-0.0241905l0.0241905 0.0241905zm-3.10629 -0.105333l0.0241905 0.0241905c-0.00161905,-0.00161905 -0.0321905,-0.0160952 -0.0241905,-0.0241905z"/>
   <path id="_147786904" class="fil3 str2" d="M88.0366 141.029l-0.405524 -2.10876c-0.572571,-0.302952 -11.0594,-3.53543 -12.6419,-4.06629l-1.87638 -0.556857c0.071619,0.26819 2.16143,3.7721 2.66238,3.98848 0.219333,0.0947619 7.33819,1.63981 7.81743,1.75324l4.444 0.99019z"/>
   <path id="_150995568" class="fil3 str2" d="M79.083 135.789l6.83438 2.33076c0.354095,0.118 1.17819,0.445238 1.55143,0.476381l0 -1.37886c-0.351905,-0.235619 -2.076,-0.846667 -2.59629,-1.05362 -0.877524,-0.348952 -1.82029,-0.722571 -2.68781,-1.04305l-5.34105 -2.03981c0.184857,0.793429 1.06714,1.85952 1.5981,2.37619 0.257524,0.250476 0.258762,0.209238 0.641238,0.332z"/>
   <path id="_147786712" class="fil3 str2" d="M85.1778 140.644l-8.73962 -1.64219c0.336952,0.636762 2.17971,2.8159 3.11219,2.97086l7.29429 0.816476c0.588286,0.0788571 1.25448,0.186952 1.84076,0.186952l-0.648857 -1.78438c-0.91219,-0.212571 -1.95867,-0.364952 -2.85876,-0.547714z"/>
   <path id="_147791584" class="fil3 str2" d="M88.665 143.159c-0.269238,-0.111619 -7.60857,-0.683048 -8.82019,-0.750476 0.328476,0.490667 1.85181,1.49162 2.46457,1.91533 0.610381,0.422 0.441238,0.236762 1.18457,0.193333 1.8621,-0.108667 4.09886,0.000190476 6.00267,0.000190476 -0.0957143,-0.358476 -0.375429,-0.567619 -0.539143,-0.920857 -0.15981,-0.344857 -0.0241905,-0.32619 -0.292476,-0.437524z"/>
   <path id="_147791536" class="fil3 str2" d="M89.6588 144.598c-1.47276,0 -2.7719,0.162286 -4.13648,0.162286 0.301429,0.450095 0.525333,0.65419 0.910857,1.03562 0.178857,0.177048 0.920667,0.810667 1.15124,0.878667l3.61543 -0.29219c-0.128857,-0.192381 -0.539333,-0.444095 -0.832571,-0.789524l-0.708476 -0.994857z"/>
   <path id="_147791752" class="fil3 str2" d="M91.4431 146.464l-3.16324 0.648857c0.281333,0.384 1.75095,1.08981 2.32629,1.32467 0.893048,0.364476 1.72848,-0.419048 2.86467,-0.513619 0.156762,-0.279048 -0.447048,-0.312286 -0.974571,-0.647619l-1.05314 -0.812286z"/>
   <path id="_517635680" class="fil3 str2" d="M93.4709 147.924c-0.291429,0.253333 -1.522,0.615905 -1.86552,0.73l0 0.16219c0.333333,0.077619 1.19695,0.548286 2.28514,0.720857 0.762762,0.120857 0.783048,-0.113048 1.85133,-0.96419 -0.376857,-0.0878095 -0.820571,-0.193143 -1.14724,-0.312667 -0.395333,-0.144571 -0.589429,-0.33619 -1.12371,-0.33619z"/>
   <path id="_150055072" class="fil3 str2" d="M95.823 148.654c-0.0741905,0.277619 -0.482571,0.806 -0.648857,1.05438 1.11057,0 0.261143,0.289048 2.1899,-0.324476l-0.0811429 -0.567714 -1.4599 -0.16219z"/>
   <path id="_150677632" class="fil3 str2" d="M102.717 148.816l-0.0811429 0.567714c0.654476,0.438286 1.4719,0.404952 2.1899,0.324476l-0.648857 -1.05438c-0.571048,0 -0.888952,0.16219 -1.4599,0.16219z"/>
   <path id="_147786352" class="fil3 str2" d="M104.258 148.572c0.16419,0.245333 0.558476,0.470667 0.810381,0.649524 0.618,0.438667 0.631619,0.53581 2.20152,0.0102857l1.12457 -0.578667c-0.281143,-0.0234286 -1.09324,-0.372381 -1.43857,-0.508095 -0.214857,-0.0844762 -0.286667,-0.1 -0.426952,-0.221905 -0.282571,0 -1.69114,0.490857 -2.27095,0.648857z"/>
   <path id="_150995640" class="fil3 str2" d="M106.529 147.924c0.405429,0.0337143 0.989048,0.252 1.4079,0.376476 1.50924,0.448381 1.1581,0.307238 3.78305,-1.18752l-3.16324 -0.648857c-0.449524,0.671238 -1.65352,1.05229 -1.92952,1.24 -0.2,0.136 -0.192381,0.000190476 -0.0981905,0.219905z"/>
   <path id="_150056752" class="fil3 str2" d="M108.8 146.383c2.67171,0 3.23057,1.04714 4.72571,-0.546286l0.95181 -1.07581c-0.761238,0 -1.23143,-0.0829524 -2.02962,-0.0792381l-2.10686 -0.0830476c-0.179238,0.338857 -0.396857,0.682571 -0.667429,0.954667l-0.873619 0.829714z"/>
   <path id="_517635368" class="fil3 str2" d="M110.503 144.517c1.94238,0 3.99562,-0.0652381 5.92362,-0.00257143 0.834286,0.0270476 0.557524,0.393714 2.08324,-0.75019 0.897238,-0.672762 0.715524,-0.519524 1.64495,-1.3561 -1.79543,0 -5.99733,0.547333 -8.10867,0.650952 -0.114476,0.00561905 -0.563333,0.0565714 -0.648286,0.0817143 -0.361238,0.106571 -0.168857,0.0240952 -0.331429,0.398571 -0.151333,0.348571 -0.469905,0.627524 -0.563429,0.977619z"/>
   <path id="_517635656" class="fil3 str2" d="M113.155 142.789c1.91838,-0.257048 4.43143,-0.52981 6.34362,-0.712762 0.245619,-0.0234286 0.657714,-0.0550476 0.950667,-0.103714 0.36619,-0.0608571 0.441714,-0.111524 0.660381,-0.312952 1.15124,-1.06057 1.39781,-1.44333 2.45181,-2.6579l-11.5984 2.1899c-0.139238,0.597429 -0.410667,1.20933 -0.648857,1.78438 0.586286,0 1.25248,-0.108095 1.84076,-0.186952z"/>
   <path id="_147786592" class="fil3 str2" d="M113.034 140.802l9.93981 -2.22638c0.296762,-0.0632381 0.788476,-0.14819 1.12848,-0.250381 0.327619,-0.0984762 0.294286,-0.0688571 0.71019,-0.668571 0.873048,-1.25876 1.36571,-2.05876 2.07486,-3.35943 -0.281619,0.0234286 -3.35905,1.02343 -3.66076,1.12467 -1.124,0.376952 -10.331,3.2199 -10.8575,3.49848l-0.405524 2.10876c0.278,-0.0230476 0.812571,-0.166762 1.07048,-0.227143z"/>
   <path id="_147785248" class="fil3 str2" d="M114.022 138.14c0.958286,-0.319524 7.1579,-2.33314 7.4959,-2.64257 0.905238,-0.828857 1.08086,-1.35124 1.63867,-2.41667 -0.35981,0.0838095 -0.949238,0.346857 -1.29771,0.486571 -1.1799,0.473048 -8.8479,3.32876 -9.32743,3.6499l0 1.37886c0.37019,-0.0308571 1.09905,-0.325524 1.49057,-0.456095z"/>
  </g>
 </g>
</svg>
